HIERARCHY
ROOT Hips
{
  OFFSET -356.087 71.2408 799.576
  CHANNELS 6 Xposition Yposition Zposition Zrotation Xrotation Yrotation
  JOINT Spine
  {
    OFFSET 0 8 0
    CHANNELS 6 Xposition Yposition Zposition Zrotation Xrotation Yrotation
    JOINT Spine1
    {
      OFFSET 2.05522e-05 7.99979 0.0586234
      CHANNELS 6 Xposition Yposition Zposition Zrotation Xrotation Yrotation
      JOINT Spine2
      {
        OFFSET -2.636e-05 8.00001 0
        CHANNELS 6 Xposition Yposition Zposition Zrotation Xrotation Yrotation
        JOINT Spine3
        {
          OFFSET 0 8 0
          CHANNELS 6 Xposition Yposition Zposition Zrotation Xrotation Yrotation
          JOINT Neck
          {
            OFFSET 0.000322403 17.0003 -0.000490405
            CHANNELS 6 Xposition Yposition Zposition Zrotation Xrotation Yrotation
            JOINT Head
            {
              OFFSET -1.37352e-05 10.7998 -8.82457e-05
              CHANNELS 6 Xposition Yposition Zposition Zrotation Xrotation Yrotation
              End Site
              {
                OFFSET 0 20.25 0
              }
            }
          }
          JOINT LeftShoulder
          {
            OFFSET 5.00032 16.9999 -0.000482903
            CHANNELS 6 Xposition Yposition Zposition Zrotation Xrotation Yrotation
            JOINT LeftShoulder2
            {
              OFFSET 6.45 0 0
              CHANNELS 6 Xposition Yposition Zposition Zrotation Xrotation Yrotation
              JOINT LeftArm
              {
                OFFSET 6.44997 -4.8729e-05 -0.000221167
                CHANNELS 6 Xposition Yposition Zposition Zrotation Xrotation Yrotation
                JOINT LeftForeArm
                {
                  OFFSET -4.4407e-05 -32.4 -2.08982
                  CHANNELS 6 Xposition Yposition Zposition Zrotation Xrotation Yrotation
                  JOINT LeftHand
                  {
                    OFFSET 8.79914e-05 -25.654 2.00005
                    CHANNELS 6 Xposition Yposition Zposition Zrotation Xrotation Yrotation
                    JOINT LeftHandThumb1
                    {
                      OFFSET -0.499984 -1.49996 2.64993
                      CHANNELS 6 Xposition Yposition Zposition Zrotation Xrotation Yrotation
                      JOINT LeftHandThumb2
                      {
                        OFFSET -3.85147e-05 -3.79996 3.69999
                        CHANNELS 6 Xposition Yposition Zposition Zrotation Xrotation Yrotation
                        JOINT LeftHandThumb3
                        {
                          OFFSET -8.65605e-05 -2.99993 2.70002
                          CHANNELS 6 Xposition Yposition Zposition Zrotation Xrotation Yrotation
                          End Site
                          {
                            OFFSET 2.14002e-05 -2.30003 1.80002
                          }
                        }
                      }
                    }
                    JOINT LeftHandIndex
                    {
                      OFFSET -2.87097e-05 -1.90006 1.60004
                      CHANNELS 6 Xposition Yposition Zposition Zrotation Xrotation Yrotation
                      JOINT LeftHandIndex1
                      {
                        OFFSET 1.29556e-05 -8.29996 1.89996
                        CHANNELS 6 Xposition Yposition Zposition Zrotation Xrotation Yrotation
                        JOINT LeftHandIndex2
                        {
                          OFFSET 0.0279446 -4.50001 -4.92978e-05
                          CHANNELS 6 Xposition Yposition Zposition Zrotation Xrotation Yrotation
                          JOINT LeftHandIndex3
                          {
                            OFFSET 3.78733e-05 -3.39996 0
                            CHANNELS 6 Xposition Yposition Zposition Zrotation Xrotation Yrotation
                            End Site
                            {
                              OFFSET -6.19874e-05 -2.60007 6.35207e-05
                            }
                          }
                        }
                      }
                    }
                    JOINT LeftHandMiddle
                    {
                      OFFSET -0.250008 -2.19998 0.400066
                      CHANNELS 6 Xposition Yposition Zposition Zrotation Xrotation Yrotation
                      JOINT LeftHandMiddle1
                      {
                        OFFSET -3.10196e-05 -8.30006 1.02318
                        CHANNELS 6 Xposition Yposition Zposition Zrotation Xrotation Yrotation
                        JOINT LeftHandMiddle2
                        {
                          OFFSET 1.10883e-05 -4.64999 -0.000277903
                          CHANNELS 6 Xposition Yposition Zposition Zrotation Xrotation Yrotation
                          JOINT LeftHandMiddle3
                          {
                            OFFSET -2.71941e-05 -3.30002 1.84638e-05
                            CHANNELS 6 Xposition Yposition Zposition Zrotation Xrotation Yrotation
                            End Site
                            {
                              OFFSET -1.31981e-05 -2.69995 0
                            }
                          }
                        }
                      }
                    }
                    JOINT LeftHandRing
                    {
                      OFFSET -0.50004 -2.09188 -0.799973
                      CHANNELS 6 Xposition Yposition Zposition Zrotation Xrotation Yrotation
                      JOINT LeftHandRing1
                      {
                        OFFSET 4.61534e-05 -7.75578 -0.200028
                        CHANNELS 6 Xposition Yposition Zposition Zrotation Xrotation Yrotation
                        JOINT LeftHandRing2
                        {
                          OFFSET -0.0470013 -3.79762 9.21836e-05
                          CHANNELS 6 Xposition Yposition Zposition Zrotation Xrotation Yrotation
                          JOINT LeftHandRing3
                          {
                            OFFSET 0.00423055 -3.39996 2.76596e-05
                            CHANNELS 6 Xposition Yposition Zposition Zrotation Xrotation Yrotation
                            End Site
                            {
                              OFFSET 0 -2.60004 -4.59597e-05
                            }
                          }
                        }
                      }
                    }
                    JOINT LeftHandPinky
                    {
                      OFFSET -0.749966 -1.74996 -1.84998
                      CHANNELS 6 Xposition Yposition Zposition Zrotation Xrotation Yrotation
                      JOINT LeftHandPinky1
                      {
                        OFFSET 3.5631e-05 -7.15006 -1.00001
                        CHANNELS 6 Xposition Yposition Zposition Zrotation Xrotation Yrotation
                        JOINT LeftHandPinky2
                        {
                          OFFSET 0.0593062 -2.99995 -5.45652e-05
                          CHANNELS 6 Xposition Yposition Zposition Zrotation Xrotation Yrotation
                          JOINT LeftHandPinky3
                          {
                            OFFSET -3.98679e-05 -2.3501 3.08159e-05
                            CHANNELS 6 Xposition Yposition Zposition Zrotation Xrotation Yrotation
                            End Site
                            {
                              OFFSET 0 -2.10001 0
                            }
                          }
                        }
                      }
                    }
                  }
                }
              }
            }
          }
          JOINT RightShoulder
          {
            OFFSET -4.99971 17.0001 -0.00045693
            CHANNELS 6 Xposition Yposition Zposition Zrotation Xrotation Yrotation
            JOINT RightShoulder2
            {
              OFFSET -6.45 0 0
              CHANNELS 6 Xposition Yposition Zposition Zrotation Xrotation Yrotation
              JOINT RightArm
              {
                OFFSET -6.45001 2.64272e-05 8.97097e-05
                CHANNELS 6 Xposition Yposition Zposition Zrotation Xrotation Yrotation
                JOINT RightForeArm
                {
                  OFFSET 1.05952e-05 -32.4 -2.00003
                  CHANNELS 6 Xposition Yposition Zposition Zrotation Xrotation Yrotation
                  JOINT RightHand
                  {
                    OFFSET 0.0764025 -25.6499 2.00006
                    CHANNELS 6 Xposition Yposition Zposition Zrotation Xrotation Yrotation
                    JOINT RightHandThumb1
                    {
                      OFFSET 0.499979 -1.50002 2.65
                      CHANNELS 6 Xposition Yposition Zposition Zrotation Xrotation Yrotation
                      JOINT RightHandThumb2
                      {
                        OFFSET 0.0565105 -3.8 3.70004
                        CHANNELS 6 Xposition Yposition Zposition Zrotation Xrotation Yrotation
                        JOINT RightHandThumb3
                        {
                          OFFSET 0.0310884 -2.99999 2.69998
                          CHANNELS 6 Xposition Yposition Zposition Zrotation Xrotation Yrotation
                          End Site
                          {
                            OFFSET -5.51649e-05 -2.30001 1.80001
                          }
                        }
                      }
                    }
                    JOINT RightHandIndex
                    {
                      OFFSET -0.000341288 -1.91725 1.60038
                      CHANNELS 6 Xposition Yposition Zposition Zrotation Xrotation Yrotation
                      JOINT RightHandIndex1
                      {
                        OFFSET 4.06267e-05 -8.3 1.9
                        CHANNELS 6 Xposition Yposition Zposition Zrotation Xrotation Yrotation
                        JOINT RightHandIndex2
                        {
                          OFFSET -1.71173e-05 -4.50001 0.0429842
                          CHANNELS 6 Xposition Yposition Zposition Zrotation Xrotation Yrotation
                          JOINT RightHandIndex3
                          {
                            OFFSET -1.25083e-05 -3.4 -7.72172e-05
                            CHANNELS 6 Xposition Yposition Zposition Zrotation Xrotation Yrotation
                            End Site
                            {
                              OFFSET -4.83414e-05 -2.59999 9.78714e-05
                            }
                          }
                        }
                      }
                    }
                    JOINT RightHandMiddle
                    {
                      OFFSET 0.250045 -2.20001 0.399938
                      CHANNELS 6 Xposition Yposition Zposition Zrotation Xrotation Yrotation
                      JOINT RightHandMiddle1
                      {
                        OFFSET 0 -8.30003 1.00437
                        CHANNELS 6 Xposition Yposition Zposition Zrotation Xrotation Yrotation
                        JOINT RightHandMiddle2
                        {
                          OFFSET 4.57172e-05 -4.64993 -5.5128e-05
                          CHANNELS 6 Xposition Yposition Zposition Zrotation Xrotation Yrotation
                          JOINT RightHandMiddle3
                          {
                            OFFSET -3.47617e-05 -3.23043 1.09967e-05
                            CHANNELS 6 Xposition Yposition Zposition Zrotation Xrotation Yrotation
                            End Site
                            {
                              OFFSET -5.03318e-05 -2.69996 -4.00146e-05
                            }
                          }
                        }
                      }
                    }
                    JOINT RightHandRing
                    {
                      OFFSET 0.499907 -2.14996 -0.800058
                      CHANNELS 6 Xposition Yposition Zposition Zrotation Xrotation Yrotation
                      JOINT RightHandRing1
                      {
                        OFFSET 0 -7.74994 -0.199943
                        CHANNELS 6 Xposition Yposition Zposition Zrotation Xrotation Yrotation
                        JOINT RightHandRing2
                        {
                          OFFSET 4.00392e-05 -3.81191 2.24802e-05
                          CHANNELS 6 Xposition Yposition Zposition Zrotation Xrotation Yrotation
                          JOINT RightHandRing3
                          {
                            OFFSET -5.37498e-05 -3.40006 -2.84684e-05
                            CHANNELS 6 Xposition Yposition Zposition Zrotation Xrotation Yrotation
                            End Site
                            {
                              OFFSET 5.58944e-05 -2.60003 5.35686e-05
                            }
                          }
                        }
                      }
                    }
                    JOINT RightHandPinky
                    {
                      OFFSET 0.749974 -1.74996 -1.83334
                      CHANNELS 6 Xposition Yposition Zposition Zrotation Xrotation Yrotation
                      JOINT RightHandPinky1
                      {
                        OFFSET 5.0096e-05 -7.15004 -1.00003
                        CHANNELS 6 Xposition Yposition Zposition Zrotation Xrotation Yrotation
                        JOINT RightHandPinky2
                        {
                          OFFSET 2.67832e-05 -3.00007 0.000108364
                          CHANNELS 6 Xposition Yposition Zposition Zrotation Xrotation Yrotation
                          JOINT RightHandPinky3
                          {
                            OFFSET 0 -2.34996 -6.16537e-05
                            CHANNELS 6 Xposition Yposition Zposition Zrotation Xrotation Yrotation
                            End Site
                            {
                              OFFSET 5.58249e-05 -2.1066 0.0170716
                            }
                          }
                        }
                      }
                    }
                  }
                }
              }
            }
          }
        }
      }
    }
  }
  JOINT LeftUpLeg
  {
    OFFSET 8.00001 0 -1.02553e-05
    CHANNELS 6 Xposition Yposition Zposition Zrotation Xrotation Yrotation
    JOINT LeftLeg
    {
      OFFSET -3.65304e-05 -45 -0.999999
      CHANNELS 6 Xposition Yposition Zposition Zrotation Xrotation Yrotation
      JOINT LeftFoot
      {
        OFFSET -6.1237e-05 -41 -2.00004
        CHANNELS 6 Xposition Yposition Zposition Zrotation Xrotation Yrotation
        JOINT LeftToeBase
        {
          OFFSET -5.65237e-05 -7.49999 12.5
          CHANNELS 6 Xposition Yposition Zposition Zrotation Xrotation Yrotation
          JOINT LeftFootToe
          {
            OFFSET 0 0 4
            CHANNELS 6 Xposition Yposition Zposition Zrotation Xrotation Yrotation
            End Site
            {
              OFFSET 0 0 0
            }
          }
        }
      }
    }
  }
  JOINT RightUpLeg
  {
    OFFSET -8.00001 0 1.02553e-05
    CHANNELS 6 Xposition Yposition Zposition Zrotation Xrotation Yrotation
    JOINT RightLeg
    {
      OFFSET 0 -45.0001 -1.00006
      CHANNELS 6 Xposition Yposition Zposition Zrotation Xrotation Yrotation
      JOINT RightFoot
      {
        OFFSET -7.38883e-05 -41.0001 -1.99995
        CHANNELS 6 Xposition Yposition Zposition Zrotation Xrotation Yrotation
        JOINT RightToeBase
        {
          OFFSET 2.64989e-05 -7.49999 12.5
          CHANNELS 6 Xposition Yposition Zposition Zrotation Xrotation Yrotation
          JOINT RightFootToe
          {
            OFFSET 0 0 4
            CHANNELS 6 Xposition Yposition Zposition Zrotation Xrotation Yrotation
            End Site
            {
              OFFSET 0 0 0
            }
          }
        }
      }
    }
  }
}
MOTION
Frames:	3
Frame Time:	0.0111111
-348.209 70.253 813.285 -7.05206 19.1438 -163.655 1.13687e-13 8 0 -0.78966 14.3817 -9.4199 0 8 0 -0.382488 3.96224 -1.8319 0 8 0 -0.207085 1.97671 -0.919038 5.68434e-14 8 -1.13687e-13 -0.206879 1.98049 -0.918371 0 17 1.13687e-13 9.7484 11.6279 -4.71692 5.68434e-14 10.8 0 17.4561 12.3585 -10.1188 5 17 0 7.32902 9.04855 -4.92321 6.45 1.42109e-14 0 -1.36933 -0.633578 -3.80463 6.45 0 0 49.9668 -18.1532 25.9036 0 -32.4 -2 -33.2148 -47.6332 -38.4937 0 -25.65 2 -6.51001 -28.7645 -40.5305 -0.5 -1.5 2.65 6.49505 3.12505 18.4342 1.42109e-14 -3.8 3.7 0.0100368 17.4351 -0.0346443 4.26326e-14 -3 2.7 0.0101642 2.50043 -0.00128866 -1.42109e-14 -1.9 1.6 -7.16577e-06 5.46474e-06 1.19421e-05 0 -8.3 1.9 -14.2552 14.3927 2.05889 0 -4.5 0 -45.7844 0.0177179 0.032071 -1.13687e-13 -3.4 5.68434e-14 -31.6223 0.00372724 0.0147223 -0.25 -2.2 0.4 -7.16577e-06 5.46474e-06 1.19421e-05 0 -8.3 1 -29.6442 23.4651 7.81764 0 -4.65 0 -26.4427 -0.0100805 -0.00063673 0 -3.3 0 -18.2258 -0.00331933 -0.00159013 -0.5 -2.15 -0.8 -7.16577e-06 5.46474e-06 1.19421e-05 -2.84217e-14 -7.75 -0.2 -25.0161 25.6828 7.4999 0 -3.8 -5.68434e-14 -91.694 -0.00111546 0.00601198 -1.13687e-13 -3.4 5.68434e-14 -89.9954 -0.00883693 -0.0014914 -0.75 -1.75 -1.85 -7.16577e-06 5.46474e-06 1.19421e-05 -1.42109e-14 -7.15 -1 -24.1367 27.0274 7.92141 5.68434e-14 -3 0 -59.3112 0.00055699 0.00304181 0 -2.35 0 -41.4989 -0.00228981 0.000897275 -5 17 0 19.6651 9.48945 -1.95058 -6.45 0 1.13687e-13 -2.14406 -1.89462 -2.3897 -6.45 2.84217e-14 0 -52.5914 8.94856 -25.8311 0 -32.4 -2 7.21638 -42.7487 8.68576 5.68434e-14 -25.65 2 -26.3018 -21.2632 32.0174 0.5 -1.5 2.65 31.9327 14.7971 -114.682 0 -3.8 3.7 0.59311 40.1755 0.223607 -2.27374e-13 -3 2.7 0.165341 0.697246 0.390045 2.84217e-14 -1.9 1.6 -5.01952e-05 2.1898e-05 -3.19216e-05 -2.84217e-14 -8.3 1.9 13.0735 -20.2236 2.07846 0 -4.5 0 2.70714 -0.0218549 -0.00328204 -5.68434e-14 -3.4 2.84217e-14 0.721766 -0.020803 -0.00349333 0.25 -2.2 0.4 -5.01952e-05 2.1898e-05 -3.19216e-05 -2.84217e-14 -8.3 1 10.0324 1.53703 -0.333673 4.26326e-14 -4.65 0 43.6352 -0.0803331 0.00087607 -1.13687e-13 -3.3 0 29.4857 -0.0435842 0.0246443 0.5 -2.15 -0.8 -5.01952e-05 2.1898e-05 -3.19216e-05 -1.42109e-14 -7.75 -0.2 41.4623 -4.65908 0.0148149 -5.68434e-14 -3.8 0 3.10553 0.020861 0.00518344 0 -3.4 -5.68434e-14 2.94032 0.0192574 0.00337144 0.75 -1.75 -1.85 -5.01952e-05 2.1898e-05 -3.19216e-05 -1.42109e-14 -7.15 -1 53.9369 -2.19086 -2.44445 0 -3 -5.68434e-14 22.2201 -0.162635 0.0369937 0 -2.35 -5.68434e-14 17.2032 -0.0915319 0.0533031 8 0 0 20.5451 -50.3998 11.0031 -1.13687e-13 -45 -1 0.910763 53.1157 -13.6623 -1.13687e-13 -41 -2 -12.4207 15.277 2.15482 0 -7.5 12.5 4.18656e-06 -3.09928e-07 -1.0235e-05 0 0 4 -1.1021 0.182793 18.6352 -8 5.68434e-14 0 -9.18704 -45.923 -20.6153 0 -45 -1 -2.11527 58.4117 13.0083 0 -41 -2 -9.40605 21.1475 2.86243 1.13687e-13 -7.5 12.5 -7.41142e-07 -11.7541 -4.06984e-05 0 2.22045e-16 4 -2.80854 12.5045 58.7931 
-348.204 70.2499 813.282 -7.05039 19.1587 -163.736 0 8 0 -0.809073 14.3602 -9.44514 0 8 0 -0.393836 3.95994 -1.82526 0 8 0 -0.212669 1.97671 -0.915817 -5.68434e-14 8 0 -0.212443 1.9802 -0.921355 0 17 0 9.74292 11.5588 -4.51544 0 10.8 0 17.3799 12.2689 -9.6351 5 17 0 7.27608 9.06027 -4.94517 6.45 -1.42109e-14 0 -1.35302 -0.633479 -3.79582 6.45 1.42109e-14 0 49.8466 -18.2397 25.9108 0 -32.4 -2 -32.7658 -47.2813 -38.0784 0 -25.65 2 -5.93303 -29.4446 -39.8778 -0.5 -1.5 2.65 6.75331 3.22194 18.1573 0 -3.8 3.7 0.0100034 17.3823 -0.0346343 0 -3 2.7 0.010174 2.93765 -0.00128913 -4.26326e-14 -1.9 1.6 -7.16577e-06 5.46474e-06 1.19421e-05 0 -8.3 1.9 -14.6601 14.2629 2.09587 2.84217e-14 -4.5 -5.68434e-14 -44.8486 0.0177179 0.0269705 0 -3.4 -5.68434e-14 -31.0248 0.00372724 0.0147223 -0.25 -2.2 0.4 -7.16577e-06 5.46474e-06 1.19421e-05 0 -8.3 1 -30.2373 23.4478 7.96824 0 -4.65 0 -26.4609 -0.0100805 -0.000224195 0 -3.3 5.68434e-14 -18.2372 -0.00331933 -0.00159013 -0.5 -2.15 -0.8 -7.16577e-06 5.46474e-06 1.19421e-05 -4.26326e-14 -7.75 -0.2 -26.0456 25.6047 7.76494 5.68434e-14 -3.8 0 -91.683 -0.00111546 0.00601198 0 -3.4 5.68434e-14 -89.9519 -0.00883693 -0.0014914 -0.75 -1.75 -1.85 -7.16577e-06 5.46474e-06 1.19421e-05 -2.84217e-14 -7.15 -1 -24.9758 26.5444 8.00343 0 -3 0 -59.1787 0.00055699 0.00304181 0 -2.35 0 -41.3915 -0.00228981 0.000897275 -5 17 0 19.6277 9.46498 -1.89188 -6.45 5.68434e-14 1.13687e-13 -2.1437 -1.88954 -2.41227 -6.45 0 0 -52.6904 9.02046 -26.0331 0 -32.4 -2 7.3668 -42.8211 8.52329 0 -25.65 2 -25.3787 -20.7298 31.7446 0.5 -1.5 2.65 31.2463 15.082 -113.475 0 -3.8 3.7 0.5958 39.6447 0.221881 1.13687e-13 -3 2.7 0.165341 0.697246 0.390045 1.42109e-14 -1.9 1.6 -5.01952e-05 2.1898e-05 -3.19216e-05 -4.26326e-14 -8.3 1.9 13.3691 -19.8008 2.08774 2.84217e-14 -4.5 -2.84217e-14 3.12439 -0.0218549 -0.00584156 0 -3.4 2.84217e-14 1.12208 -0.020803 -0.00589663 0.25 -2.2 0.4 -5.01952e-05 2.1898e-05 -3.19216e-05 -4.9738e-14 -8.3 1 9.67936 2.0581 -0.351477 4.26326e-14 -4.65 0 44.0697 -0.056928 -0.0052495 0 -3.3 0 29.7525 -0.0325699 0.0140003 0.5 -2.15 -0.8 -5.01952e-05 2.1898e-05 -3.19216e-05 0 -7.75 -0.2 41.816 -4.14299 -0.182954 -5.68434e-14 -3.8 0 3.45459 -0.00152859 0.010348 0 -3.4 -1.13687e-13 3.24774 -0.000298255 0.00921055 0.75 -1.75 -1.85 -5.01952e-05 2.1898e-05 -3.19216e-05 7.10543e-15 -7.15 -1 54.8163 -1.59894 -2.86778 0 -3 0 25.0977 -0.144391 0.0728121 0 -2.35 0 18.9814 -0.0704591 0.0710226 8 0 0 20.366 -50.2916 10.6741 0 -45 -1 0.880349 53.0244 -13.5552 1.13687e-13 -41 -2 -12.5399 15.1367 2.48703 1.13687e-13 -7.5 12.5 4.18656e-06 -3.09928e-07 -1.0235e-05 -1.13687e-13 1.77636e-15 4 -1.06055 0.182293 18.6234 -8 0 0 -9.10993 -45.931 -20.5254 0 -45 -1 -2.14326 58.4121 13.0606 0 -41 -2 -9.41721 21.1664 2.89272 0 -7.5 12.5 -7.47341e-07 -11.7626 -4.06996e-05 -1.13687e-13 -2.22045e-16 4 -2.81054 12.5326 58.807 
-348.2 70.2469 813.279 -7.04868 19.1735 -163.816 0 8 -1.13687e-13 -0.828506 14.3387 -9.47039 0 8 0 -0.405183 3.95763 -1.81862 0 8 0 -0.218252 1.97671 -0.912596 0 8 0 -0.218282 1.97996 -0.913439 5.68434e-14 17 0 9.73794 11.4896 -4.31407 0 10.8 0 17.3055 12.1781 -9.15176 5 17 0 7.22315 9.07199 -4.96712 6.45 0 0 -1.34167 -0.633197 -3.78273 6.45 0 0 49.7264 -18.3262 25.918 5.68434e-14 -32.4 -2 -32.3242 -46.9267 -37.6702 0 -25.65 2 -5.34195 -30.1277 -39.2218 -0.5 -1.5 2.65 7.01247 3.31905 17.8803 0 -3.8 3.7 0.00996992 17.3294 -0.0346243 -2.84217e-14 -3 2.7 0.0101839 3.37487 -0.00128967 -4.26326e-14 -1.9 1.6 -7.16577e-06 5.46474e-06 1.19421e-05 0 -8.3 1.9 -15.0649 14.133 2.13282 0 -4.5 0 -43.9128 0.0177179 0.02187 0 -3.4 5.68434e-14 -30.4273 0.00372724 0.0147223 -0.25 -2.2 0.4 -7.16577e-06 5.46474e-06 1.19421e-05 0 -8.3 1 -30.8302 23.4304 8.11881 0 -4.65 -5.68434e-14 -26.4791 -0.0100805 0.00018834 -1.13687e-13 -3.3 -5.68434e-14 -18.2485 -0.00331933 -0.00159013 -0.5 -2.15 -0.8 -7.16577e-06 5.46474e-06 1.19421e-05 -5.68434e-14 -7.75 -0.2 -27.0744 25.5261 8.02965 5.68434e-14 -3.8 -5.68434e-14 -91.6719 -0.00111546 0.00601198 0 -3.4 0 -89.9084 -0.00883693 -0.0014914 -0.75 -1.75 -1.85 -7.16577e-06 5.46474e-06 1.19421e-05 -4.26326e-14 -7.15 -1 -25.8133 26.0615 8.08534 5.68434e-14 -3 -5.68434e-14 -59.0462 0.00055699 0.00304181 -1.13687e-13 -2.35 0 -41.2841 -0.00228981 0.000897275 -5 17 1.13687e-13 19.5904 9.44051 -1.83319 -6.45 2.84217e-14 1.13687e-13 -2.14438 -1.88251 -2.43882 -6.45 0 1.13687e-13 -52.7888 9.09197 -26.2352 -2.84217e-14 -32.4 -2 7.51668 -42.8933 8.36045 0 -25.65 2 -24.4502 -20.1938 31.4768 0.5 -1.5 2.65 30.5429 15.3085 -112.271 0 -3.8 3.7 0.598449 39.114 0.2202 0 -3 2.7 0.165341 0.697246 0.390045 2.13163e-14 -1.9 1.6 -5.01952e-05 2.1898e-05 -3.19216e-05 -2.84217e-14 -8.3 1.9 13.6646 -19.378 2.09708 0 -4.5 2.84217e-14 3.54165 -0.0218549 -0.00840108 -5.68434e-14 -3.4 0 1.5224 -0.020803 -0.00829994 0.25 -2.2 0.4 -5.01952e-05 2.1898e-05 -3.19216e-05 -2.84217e-14 -8.3 1 9.32664 2.57916 -0.369322 4.26326e-14 -4.65 0 44.5042 -0.0335229 -0.0113751 0 -3.3 0 30.0192 -0.0215556 0.00335629 0.5 -2.15 -0.8 -5.01952e-05 2.1898e-05 -3.19216e-05 7.10543e-15 -7.75 -0.2 42.1732 -3.62687 -0.38048 5.68434e-14 -3.8 0 3.80365 -0.0239182 0.0155125 0 -3.4 5.68434e-14 3.55517 -0.0198539 0.0150497 0.75 -1.75 -1.85 -5.01952e-05 2.1898e-05 -3.19216e-05 7.10543e-15 -7.15 -1 55.7044 -1.00737 -3.29116 0 -3 0 27.9752 -0.126147 0.108631 -1.13687e-13 -2.35 1.13687e-13 20.7596 -0.0493863 0.088742 8 0 0 20.1888 -50.1824 10.3467 0 -45 -1 0.850509 52.933 -13.4487 0 -41 -2 -12.6573 14.996 2.8188 -1.13687e-13 -7.5 12.5 4.18656e-06 -3.09928e-07 -1.0235e-05 1.13687e-13 3.55271e-15 4 -1.00784 0.188758 18.6249 -8 0 0 -9.0328 -45.9389 -20.4355 -5.68434e-14 -45 -1 -2.17126 58.4125 13.113 0 -41 -2 -9.42838 21.1854 2.92302 -1.13687e-13 -7.5 12.5 -7.53541e-07 -11.7712 -4.07009e-05 0 2.22045e-16 4 -2.82769 12.5327 58.8177 
